<svg width="40" height="40" viewBox="0 0 40 40" fill="none" xmlns="http://www.w3.org/2000/svg">
<path fill-rule="evenodd" clip-rule="evenodd" d="M19.8591 12.2291L12.9925 12.1877L16.3645 33.491H17.1002H23.8442H24.5799L27.9518 12.1877L19.8591 12.2291Z" fill="#FF9100"></path>
<path fill-rule="evenodd" clip-rule="evenodd" d="M19.8591 12.2291L12.9925 12.1877L16.3645 33.491H17.1002H22.1275H22.8632L26.2352 12.1877L19.8591 12.2291Z" fill="#FFDD00"></path>
<path fill-rule="evenodd" clip-rule="evenodd" d="M11.0306 12.1877H28.7488V10.2231H11.0306V12.1877Z" fill="white"></path>
<path fill-rule="evenodd" clip-rule="evenodd" d="M11.0306 12.1877H28.7488V10.2231H11.0306V12.1877Z" stroke="black" stroke-width="0.919629"></path>
<path fill-rule="evenodd" clip-rule="evenodd" d="M25.3156 7.0307H21.0853H18.5716H14.3413L13.0538 9.97756H18.5716H21.0853H26.603L25.3156 7.0307Z" fill="white"></path>
<path fill-rule="evenodd" clip-rule="evenodd" d="M25.3156 7.0307H21.0853H18.5716H14.3413L13.0539 9.97756H18.5716H21.0853H26.6031L25.3156 7.0307Z" stroke="#050505" stroke-width="0.919629"></path>
<path fill-rule="evenodd" clip-rule="evenodd" d="M19.8591 12.2291L11.7664 12.1877L15.1383 33.491H15.874H23.8442H24.5799L27.9518 12.1877L19.8591 12.2291Z" stroke="black" stroke-width="0.919629"></path>
<path fill-rule="evenodd" clip-rule="evenodd" d="M28.1971 18.2042H20.119H19.5379H11.4598L12.9708 26.6764L19.8284 26.6026L26.6861 26.6764L28.1971 18.2042Z" fill="white"></path>
<path fill-rule="evenodd" clip-rule="evenodd" d="M28.1971 18.2042H20.119H19.5379H11.4598L12.9708 26.6764L19.8284 26.6026L26.6861 26.6764L28.1971 18.2042Z" stroke="black" stroke-width="0.919629"></path>
</svg>